<mxfile host="app.diagrams.net" modified="2021-05-09T09:13:48.001Z" agent="5.0 (Macintosh; Intel Mac OS X 10_15_7) AppleWebKit/537.36 (KHTML, like Gecko) Chrome/86.0.4240.193 Safari/537.36" etag="z_vkQjzlOIbDfhCZKuA5" version="14.6.11" type="github">
  <diagram id="kk2nEU92VmZkXZ5IUD9w" name="Page-1">
    <mxGraphModel dx="1426" dy="771" grid="1" gridSize="10" guides="1" tooltips="1" connect="1" arrows="1" fold="1" page="1" pageScale="1" pageWidth="827" pageHeight="1169" math="0" shadow="0">
      <root>
        <mxCell id="0" />
        <mxCell id="1" parent="0" />
        <mxCell id="dX2_uMsCoYPa1oZZKjKY-1" value="消息所属broker地址" style="rounded=0;whiteSpace=wrap;html=1;fillColor=#dae8fc;strokeColor=#6c8ebf;" parent="1" vertex="1">
          <mxGeometry x="130" y="150" width="150" height="60" as="geometry" />
        </mxCell>
        <mxCell id="dX2_uMsCoYPa1oZZKjKY-2" value="commitLog offset" style="rounded=0;whiteSpace=wrap;html=1;fillColor=#dae8fc;strokeColor=#6c8ebf;" parent="1" vertex="1">
          <mxGeometry x="280" y="150" width="150" height="60" as="geometry" />
        </mxCell>
        <mxCell id="dX2_uMsCoYPa1oZZKjKY-4" value="8字节" style="text;html=1;strokeColor=none;fillColor=none;align=center;verticalAlign=middle;whiteSpace=wrap;rounded=0;" parent="1" vertex="1">
          <mxGeometry x="185" y="110" width="40" height="20" as="geometry" />
        </mxCell>
        <mxCell id="dX2_uMsCoYPa1oZZKjKY-5" value="8字节" style="text;html=1;strokeColor=none;fillColor=none;align=center;verticalAlign=middle;whiteSpace=wrap;rounded=0;" parent="1" vertex="1">
          <mxGeometry x="335" y="110" width="40" height="20" as="geometry" />
        </mxCell>
        <mxCell id="dX2_uMsCoYPa1oZZKjKY-7" value="Message Id 组成" style="text;html=1;strokeColor=none;fillColor=none;align=center;verticalAlign=middle;whiteSpace=wrap;rounded=0;" parent="1" vertex="1">
          <mxGeometry x="210" y="240" width="150" height="20" as="geometry" />
        </mxCell>
      </root>
    </mxGraphModel>
  </diagram>
</mxfile>
